<mxfile host="app.diagrams.net" modified="2023-03-14T13:00:56.864Z" agent="5.0 (Windows NT 10.0; Win64; x64) AppleWebKit/537.36 (KHTML, like Gecko) Chrome/111.0.0.0 Safari/537.36" etag="CKs-qLuzXOmFVMW9uDgg" version="21.0.6" type="github">
  <diagram id="C5RBs43oDa-KdzZeNtuy" name="Page-1">
    <mxGraphModel dx="1194" dy="766" grid="1" gridSize="10" guides="1" tooltips="1" connect="1" arrows="1" fold="1" page="1" pageScale="1" pageWidth="827" pageHeight="1169" math="0" shadow="0">
      <root>
        <mxCell id="WIyWlLk6GJQsqaUBKTNV-0" />
        <mxCell id="WIyWlLk6GJQsqaUBKTNV-1" parent="WIyWlLk6GJQsqaUBKTNV-0" />
        <mxCell id="SmrcqVJDbYwDQYmUGElq-10" style="edgeStyle=orthogonalEdgeStyle;rounded=0;orthogonalLoop=1;jettySize=auto;html=1;entryX=0.5;entryY=0;entryDx=0;entryDy=0;" edge="1" parent="WIyWlLk6GJQsqaUBKTNV-1" source="SmrcqVJDbYwDQYmUGElq-0" target="SmrcqVJDbYwDQYmUGElq-1">
          <mxGeometry relative="1" as="geometry" />
        </mxCell>
        <mxCell id="SmrcqVJDbYwDQYmUGElq-0" value="start" style="ellipse;whiteSpace=wrap;html=1;" vertex="1" parent="WIyWlLk6GJQsqaUBKTNV-1">
          <mxGeometry x="354" y="20" width="120" height="80" as="geometry" />
        </mxCell>
        <mxCell id="SmrcqVJDbYwDQYmUGElq-11" style="edgeStyle=orthogonalEdgeStyle;rounded=0;orthogonalLoop=1;jettySize=auto;html=1;entryX=0.5;entryY=0;entryDx=0;entryDy=0;" edge="1" parent="WIyWlLk6GJQsqaUBKTNV-1" source="SmrcqVJDbYwDQYmUGElq-1" target="SmrcqVJDbYwDQYmUGElq-2">
          <mxGeometry relative="1" as="geometry" />
        </mxCell>
        <mxCell id="SmrcqVJDbYwDQYmUGElq-1" value="int tab[5]={}" style="rounded=0;whiteSpace=wrap;html=1;" vertex="1" parent="WIyWlLk6GJQsqaUBKTNV-1">
          <mxGeometry x="354" y="130" width="120" height="60" as="geometry" />
        </mxCell>
        <mxCell id="SmrcqVJDbYwDQYmUGElq-12" style="edgeStyle=orthogonalEdgeStyle;rounded=0;orthogonalLoop=1;jettySize=auto;html=1;entryX=0.5;entryY=0;entryDx=0;entryDy=0;" edge="1" parent="WIyWlLk6GJQsqaUBKTNV-1" source="SmrcqVJDbYwDQYmUGElq-2" target="SmrcqVJDbYwDQYmUGElq-4">
          <mxGeometry relative="1" as="geometry" />
        </mxCell>
        <mxCell id="SmrcqVJDbYwDQYmUGElq-2" value="podaj x" style="shape=parallelogram;perimeter=parallelogramPerimeter;whiteSpace=wrap;html=1;fixedSize=1;" vertex="1" parent="WIyWlLk6GJQsqaUBKTNV-1">
          <mxGeometry x="354" y="230" width="120" height="60" as="geometry" />
        </mxCell>
        <mxCell id="SmrcqVJDbYwDQYmUGElq-19" style="edgeStyle=orthogonalEdgeStyle;rounded=0;orthogonalLoop=1;jettySize=auto;html=1;entryX=0.5;entryY=0;entryDx=0;entryDy=0;" edge="1" parent="WIyWlLk6GJQsqaUBKTNV-1" source="SmrcqVJDbYwDQYmUGElq-3" target="SmrcqVJDbYwDQYmUGElq-7">
          <mxGeometry relative="1" as="geometry" />
        </mxCell>
        <mxCell id="SmrcqVJDbYwDQYmUGElq-22" style="edgeStyle=orthogonalEdgeStyle;rounded=0;orthogonalLoop=1;jettySize=auto;html=1;" edge="1" parent="WIyWlLk6GJQsqaUBKTNV-1" source="SmrcqVJDbYwDQYmUGElq-3" target="SmrcqVJDbYwDQYmUGElq-21">
          <mxGeometry relative="1" as="geometry" />
        </mxCell>
        <mxCell id="SmrcqVJDbYwDQYmUGElq-3" value="i&amp;lt;5" style="rhombus;whiteSpace=wrap;html=1;" vertex="1" parent="WIyWlLk6GJQsqaUBKTNV-1">
          <mxGeometry x="374" y="470" width="80" height="80" as="geometry" />
        </mxCell>
        <mxCell id="SmrcqVJDbYwDQYmUGElq-13" style="edgeStyle=orthogonalEdgeStyle;rounded=0;orthogonalLoop=1;jettySize=auto;html=1;" edge="1" parent="WIyWlLk6GJQsqaUBKTNV-1" source="SmrcqVJDbYwDQYmUGElq-4" target="SmrcqVJDbYwDQYmUGElq-3">
          <mxGeometry relative="1" as="geometry" />
        </mxCell>
        <mxCell id="SmrcqVJDbYwDQYmUGElq-4" value="i=0" style="rounded=0;whiteSpace=wrap;html=1;" vertex="1" parent="WIyWlLk6GJQsqaUBKTNV-1">
          <mxGeometry x="354" y="330" width="120" height="60" as="geometry" />
        </mxCell>
        <mxCell id="SmrcqVJDbYwDQYmUGElq-15" style="edgeStyle=orthogonalEdgeStyle;rounded=0;orthogonalLoop=1;jettySize=auto;html=1;exitX=0;exitY=0.5;exitDx=0;exitDy=0;" edge="1" parent="WIyWlLk6GJQsqaUBKTNV-1" source="SmrcqVJDbYwDQYmUGElq-7" target="SmrcqVJDbYwDQYmUGElq-8">
          <mxGeometry relative="1" as="geometry" />
        </mxCell>
        <mxCell id="SmrcqVJDbYwDQYmUGElq-16" style="edgeStyle=orthogonalEdgeStyle;rounded=0;orthogonalLoop=1;jettySize=auto;html=1;exitX=1;exitY=0.5;exitDx=0;exitDy=0;entryX=0.5;entryY=0;entryDx=0;entryDy=0;" edge="1" parent="WIyWlLk6GJQsqaUBKTNV-1" source="SmrcqVJDbYwDQYmUGElq-7" target="SmrcqVJDbYwDQYmUGElq-9">
          <mxGeometry relative="1" as="geometry" />
        </mxCell>
        <mxCell id="SmrcqVJDbYwDQYmUGElq-7" value="tab[i]==x" style="rhombus;whiteSpace=wrap;html=1;" vertex="1" parent="WIyWlLk6GJQsqaUBKTNV-1">
          <mxGeometry x="474" y="560" width="80" height="80" as="geometry" />
        </mxCell>
        <mxCell id="SmrcqVJDbYwDQYmUGElq-20" style="edgeStyle=orthogonalEdgeStyle;rounded=0;orthogonalLoop=1;jettySize=auto;html=1;" edge="1" parent="WIyWlLk6GJQsqaUBKTNV-1" source="SmrcqVJDbYwDQYmUGElq-8">
          <mxGeometry relative="1" as="geometry">
            <mxPoint x="410" y="430" as="targetPoint" />
            <Array as="points">
              <mxPoint x="770" y="720" />
              <mxPoint x="770" y="430" />
            </Array>
          </mxGeometry>
        </mxCell>
        <mxCell id="SmrcqVJDbYwDQYmUGElq-8" value="i++" style="rounded=0;whiteSpace=wrap;html=1;" vertex="1" parent="WIyWlLk6GJQsqaUBKTNV-1">
          <mxGeometry x="467" y="700" width="94" height="40" as="geometry" />
        </mxCell>
        <mxCell id="SmrcqVJDbYwDQYmUGElq-17" style="edgeStyle=orthogonalEdgeStyle;rounded=0;orthogonalLoop=1;jettySize=auto;html=1;entryX=0.5;entryY=0;entryDx=0;entryDy=0;" edge="1" parent="WIyWlLk6GJQsqaUBKTNV-1" source="SmrcqVJDbYwDQYmUGElq-9" target="SmrcqVJDbYwDQYmUGElq-8">
          <mxGeometry relative="1" as="geometry" />
        </mxCell>
        <mxCell id="SmrcqVJDbYwDQYmUGElq-9" value="wypisz: x jest w tablicy" style="shape=parallelogram;perimeter=parallelogramPerimeter;whiteSpace=wrap;html=1;fixedSize=1;" vertex="1" parent="WIyWlLk6GJQsqaUBKTNV-1">
          <mxGeometry x="570" y="620" width="120" height="60" as="geometry" />
        </mxCell>
        <mxCell id="SmrcqVJDbYwDQYmUGElq-21" value="stop" style="ellipse;whiteSpace=wrap;html=1;" vertex="1" parent="WIyWlLk6GJQsqaUBKTNV-1">
          <mxGeometry x="230" y="590" width="120" height="80" as="geometry" />
        </mxCell>
      </root>
    </mxGraphModel>
  </diagram>
</mxfile>
